<svg width="4" height="6" viewBox="0 0 4 6" fill="none" xmlns="http://www.w3.org/2000/svg">
<g opacity="0.4">
<path d="M1.23074 4.05335C1.08826 4.05335 0.945781 4.03615 0.803299 4.00176C0.660818 3.96737 0.528163 3.91087 0.405334 3.83226C0.282506 3.75365 0.184243 3.64556 0.110546 3.50799C0.0368484 3.36551 0 3.18863 0 2.97737C0 2.71206 0.0638704 2.49342 0.191612 2.32146C0.319354 2.1495 0.496228 2.01685 0.722233 1.9235C0.953151 1.82523 1.22583 1.75891 1.54027 1.72452C1.85471 1.68521 2.19618 1.66556 2.56466 1.66556V1.22337C2.56466 1.08089 2.5401 0.958064 2.49097 0.854888C2.44183 0.751712 2.3534 0.673102 2.22566 0.619057C2.10283 0.560099 1.92595 0.53062 1.69504 0.53062C1.47394 0.53062 1.29707 0.560099 1.16442 0.619057C1.03667 0.673102 0.945781 0.744342 0.891736 0.832779C0.842605 0.921216 0.818039 1.01948 0.818039 1.12757V1.23811H0.191612C0.186699 1.21355 0.184243 1.18898 0.184243 1.16442C0.184243 1.13985 0.184243 1.11037 0.184243 1.07598C0.184243 0.840149 0.248114 0.643623 0.375855 0.486402C0.50851 0.324268 0.692754 0.203896 0.928585 0.125285C1.16442 0.0417618 1.43464 0 1.73925 0C2.06352 0 2.33375 0.0466749 2.54992 0.140025C2.77102 0.233375 2.93561 0.36603 3.0437 0.53799C3.1567 0.70995 3.2132 0.916302 3.2132 1.15705V3.25742C3.2132 3.35077 3.23531 3.41709 3.27953 3.4564C3.32374 3.49079 3.37779 3.50799 3.44166 3.50799H3.72908V3.93543C3.6603 3.96491 3.58414 3.98948 3.50062 4.00913C3.41709 4.0337 3.32129 4.04598 3.2132 4.04598C3.08546 4.04598 2.97982 4.01896 2.8963 3.96491C2.81278 3.91578 2.74891 3.847 2.70469 3.75856C2.66047 3.66521 2.63099 3.56203 2.61625 3.44903H2.56466C2.47623 3.57186 2.36322 3.67995 2.22566 3.7733C2.093 3.86174 1.94315 3.93052 1.7761 3.97965C1.60906 4.02878 1.42727 4.05335 1.23074 4.05335ZM1.39288 3.50799C1.5501 3.50799 1.69749 3.48342 1.83506 3.43429C1.97754 3.38516 2.10283 3.31638 2.21092 3.22794C2.31901 3.13459 2.40499 3.02404 2.46886 2.8963C2.53273 2.76856 2.56466 2.62853 2.56466 2.47623V2.15196C2.1667 2.15196 1.82769 2.17407 1.54764 2.21829C1.26759 2.26251 1.05141 2.34112 0.899106 2.45412C0.751712 2.56712 0.678015 2.7268 0.678015 2.93315C0.678015 3.06581 0.707494 3.17389 0.766451 3.25742C0.825409 3.34094 0.908932 3.40481 1.01702 3.44903C1.12511 3.48834 1.2504 3.50799 1.39288 3.50799Z" fill="#FAFCFF"/>
<path d="M0 5.40918C0 5.68532 0.223858 5.90918 0.5 5.90918H3.5C3.77614 5.90918 4 5.68532 4 5.40918C4 5.13304 3.77614 4.90918 3.5 4.90918H0.5C0.223858 4.90918 0 5.13304 0 5.40918Z" fill="#FAFCFF"/>
</g>
</svg>
