<svg width="15" height="13" viewBox="0 0 15 13" fill="none" xmlns="http://www.w3.org/2000/svg">
<path d="M3.42256 6.35457C3.64398 6.19 3.95692 6.23594 4.12178 6.45711C4.28663 6.67865 4.24078 6.99246 4.01924 7.15731C3.34955 7.65563 2.7747 8.12754 2.36495 8.55868C2.28015 8.6479 2.20627 8.73249 2.14131 8.81161C2.2981 8.76308 2.4727 8.709 2.6628 8.64754C3.60464 8.34306 4.90802 7.90064 6.26046 7.48836C7.613 7.07606 9.04337 6.68454 10.2565 6.48153C10.862 6.38022 11.4319 6.32263 11.9206 6.33797C12.3925 6.35282 12.8716 6.43762 13.2214 6.69637C13.7009 7.05123 14.0226 7.46783 14.112 7.95418C14.2022 8.44523 14.0355 8.89748 13.7712 9.27743C13.2614 10.0103 12.2649 10.6547 11.2487 11.1768C10.2095 11.7108 9.05968 12.1615 8.15499 12.4776C7.70174 12.636 7.30584 12.7617 7.01143 12.8487C6.86481 12.892 6.74021 12.9262 6.64522 12.9503C6.59809 12.9622 6.55376 12.9729 6.51631 12.9806C6.49558 12.9848 6.42815 12.9991 6.36006 12.9991C6.08405 12.999 5.86006 12.7752 5.86006 12.4991C5.86017 12.2231 6.08412 11.9993 6.36006 11.9991C6.31129 11.9991 6.28153 12.008 6.31514 12.0011C6.33203 11.9976 6.35976 11.9915 6.39913 11.9815C6.4773 11.9617 6.58823 11.9308 6.72725 11.8897C7.00494 11.8077 7.38572 11.6868 7.82491 11.5333C8.70548 11.2256 9.80849 10.7924 10.7917 10.2872C11.7978 9.7702 12.594 9.21918 12.9509 8.70614C13.1197 8.46323 13.1552 8.27939 13.1286 8.13485C13.1012 7.98574 12.9869 7.76731 12.6257 7.50008C12.5262 7.4266 12.3022 7.35097 11.8894 7.33797C11.4933 7.32553 10.9958 7.37179 10.4216 7.46786C9.27468 7.65978 7.89505 8.03515 6.55245 8.44442C5.20981 8.8537 3.93196 9.28786 2.97042 9.59872C2.49594 9.75211 2.09047 9.87801 1.80147 9.95125C1.66262 9.98644 1.52212 10.0172 1.40596 10.0264C1.35752 10.0303 1.25389 10.0362 1.14424 10.004C1.08611 9.98688 0.983077 9.9471 0.894244 9.84872C0.792036 9.73547 0.751629 9.59299 0.760455 9.462L0.772174 9.35555C0.848483 8.8206 1.21829 8.3133 1.64034 7.86922C2.11005 7.37504 2.7399 6.86254 3.42256 6.35457Z" fill="url(#paint0_linear_184_80)" fill-opacity="0.55"/>
<path d="M5.49721 0.291689C6.33013 0.0633203 7.20297 -0.0447435 7.97963 0.0172753C8.74316 0.0782618 9.49298 0.311464 9.97767 0.849307C10.2025 1.09884 10.3008 1.40087 10.2706 1.7204C10.2425 2.01688 10.1083 2.29296 9.94349 2.53485C9.61569 3.01596 9.05862 3.51876 8.42885 4.01435C7.78979 4.51723 7.03104 5.0465 6.26576 5.57489C5.49524 6.1069 4.7171 6.63894 4.01967 7.1579C3.79827 7.32257 3.48535 7.27653 3.32045 7.05536C3.1556 6.83382 3.20145 6.52001 3.42299 6.35517C4.13821 5.82299 4.93457 5.27933 5.6974 4.75263C6.46548 4.2223 7.19961 3.70907 7.81068 3.22821C8.43095 2.74009 8.88216 2.31747 9.11732 1.97235C9.23389 1.80127 9.26964 1.68837 9.27553 1.62665C9.27918 1.58806 9.27464 1.5617 9.23549 1.51825C8.99725 1.25386 8.54861 1.0652 7.89955 1.01337C7.2638 0.962669 6.50967 1.05056 5.76185 1.25556C5.01449 1.46048 4.29905 1.77598 3.73842 2.1579C3.16903 2.54583 2.80949 2.96722 2.6808 3.36591C2.59599 3.62859 2.3146 3.77283 2.05189 3.68817C1.7891 3.60335 1.6448 3.32108 1.72963 3.05829C1.95501 2.36058 2.51736 1.77938 3.17592 1.33075C3.84342 0.876118 4.66364 0.520256 5.49721 0.291689Z" fill="white"/>
<path d="M1.375 6.25635C1.65114 6.25635 1.875 6.48021 1.875 6.75635C1.875 7.03249 1.65114 7.25635 1.375 7.25635H0.5C0.223858 7.25635 0 7.03249 0 6.75635C0 6.48021 0.223858 6.25635 0.5 6.25635H1.375ZM4.875 6.25635C5.15114 6.25635 5.375 6.48021 5.375 6.75635C5.375 7.03249 5.15114 7.25635 4.875 7.25635H3.125C2.84886 7.25635 2.625 7.03249 2.625 6.75635C2.625 6.48021 2.84886 6.25635 3.125 6.25635H4.875ZM8.375 6.25635C8.65114 6.25635 8.875 6.48021 8.875 6.75635C8.875 7.03249 8.65114 7.25635 8.375 7.25635H6.625C6.34886 7.25635 6.125 7.03249 6.125 6.75635C6.125 6.48021 6.34886 6.25635 6.625 6.25635H8.375ZM11.875 6.25635C12.1511 6.25635 12.375 6.48021 12.375 6.75635C12.375 7.03249 12.1511 7.25635 11.875 7.25635H10.125C9.84886 7.25635 9.625 7.03249 9.625 6.75635C9.625 6.48021 9.84886 6.25635 10.125 6.25635H11.875ZM14.5 6.25635C14.7761 6.25635 15 6.48021 15 6.75635C15 7.03249 14.7761 7.25635 14.5 7.25635H13.625C13.3489 7.25635 13.125 7.03249 13.125 6.75635C13.125 6.48021 13.3489 6.25635 13.625 6.25635H14.5Z" fill="white"/>
<defs>
<linearGradient id="paint0_linear_184_80" x1="7.44798" y1="6.75594" x2="7.44798" y2="11.386" gradientUnits="userSpaceOnUse">
<stop stop-color="white"/>
<stop offset="1" stop-color="white" stop-opacity="0"/>
</linearGradient>
</defs>
</svg>
