<svg width="9" height="7" viewBox="0 0 9 7" fill="none" xmlns="http://www.w3.org/2000/svg">
<g opacity="0.4">
<path d="M0 5.05563L1.9972 0H2.91841L4.92297 5.05563H4.16389L3.67012 3.80278H1.20863L0.722233 5.05563H0ZM1.4371 3.20583H3.43429L2.8226 1.62134C2.80786 1.57712 2.78576 1.51571 2.75628 1.4371C2.7268 1.35849 2.69486 1.27251 2.66047 1.17916C2.62608 1.08089 2.59169 0.98263 2.55729 0.884367C2.5229 0.781191 2.49097 0.687841 2.46149 0.604317H2.41727C2.38288 0.70258 2.34357 0.815583 2.29935 0.943325C2.25514 1.07107 2.21092 1.19635 2.1667 1.31918C2.12248 1.4371 2.08563 1.53782 2.05615 1.62134L1.4371 3.20583Z" fill="#FAFCFF"/>
<path d="M6.45323 5.14407C6.31075 5.14407 6.16827 5.12687 6.02578 5.09248C5.8833 5.05809 5.75065 5.00159 5.62782 4.92298C5.50499 4.84436 5.40673 4.73628 5.33303 4.59871C5.25933 4.45623 5.22249 4.27935 5.22249 4.06809C5.22249 3.80278 5.28636 3.58414 5.4141 3.41218C5.54184 3.24022 5.71871 3.10757 5.94472 3.01422C6.17564 2.91595 6.44832 2.84963 6.76276 2.81523C7.0772 2.77593 7.41866 2.75628 7.78715 2.75628V2.31409C7.78715 2.17161 7.76258 2.04878 7.71345 1.94561C7.66432 1.84243 7.57588 1.76382 7.44814 1.70978C7.32531 1.65082 7.14844 1.62134 6.91752 1.62134C6.69643 1.62134 6.51956 1.65082 6.3869 1.70978C6.25916 1.76382 6.16827 1.83506 6.11422 1.9235C6.06509 2.01193 6.04052 2.1102 6.04052 2.21829V2.32883H5.4141C5.40918 2.30427 5.40673 2.2797 5.40673 2.25514C5.40673 2.23057 5.40673 2.20109 5.40673 2.1667C5.40673 1.93087 5.4706 1.73434 5.59834 1.57712C5.731 1.41499 5.91524 1.29461 6.15107 1.216C6.3869 1.13248 6.65712 1.09072 6.96174 1.09072C7.28601 1.09072 7.55623 1.13739 7.77241 1.23074C7.9935 1.32409 8.15809 1.45675 8.26618 1.62871C8.37918 1.80067 8.43568 2.00702 8.43568 2.24777V4.34814C8.43568 4.44149 8.45779 4.50781 8.50201 4.54712C8.54623 4.58151 8.60027 4.59871 8.66415 4.59871H8.95156V5.02615C8.88278 5.05563 8.80663 5.0802 8.7231 5.09985C8.63958 5.12441 8.54377 5.1367 8.43568 5.1367C8.30794 5.1367 8.20231 5.10967 8.11879 5.05563C8.03526 5.0065 7.97139 4.93771 7.92717 4.84928C7.88296 4.75593 7.85348 4.65275 7.83874 4.53975H7.78715C7.69871 4.66258 7.58571 4.77067 7.44814 4.86402C7.31549 4.95245 7.16563 5.02124 6.99859 5.07037C6.83154 5.1195 6.64975 5.14407 6.45323 5.14407ZM6.61536 4.59871C6.77258 4.59871 6.91998 4.57414 7.05755 4.52501C7.20003 4.47588 7.32531 4.40709 7.4334 4.31866C7.54149 4.22531 7.62747 4.11476 7.69134 3.98702C7.75521 3.85928 7.78715 3.71925 7.78715 3.56695V3.24268C7.38918 3.24268 7.05018 3.26479 6.77013 3.30901C6.49008 3.35322 6.2739 3.43183 6.12159 3.54484C5.9742 3.65784 5.9005 3.81752 5.9005 4.02387C5.9005 4.15652 5.92998 4.26461 5.98894 4.34814C6.04789 4.43166 6.13142 4.49553 6.23951 4.53975C6.3476 4.57905 6.47288 4.59871 6.61536 4.59871Z" fill="#FAFCFF"/>
<path d="M0 6.5C0 6.77614 0.223858 7 0.5 7H8.5C8.77614 7 9 6.77614 9 6.5C9 6.22386 8.77614 6 8.5 6H0.5C0.223858 6 0 6.22386 0 6.5Z" fill="#FAFCFF"/>
</g>
</svg>
